<?xml version="1.0" encoding="utf-8"?>
<!-- Generator: Adobe Illustrator 22.1.0, SVG Export Plug-In . SVG Version: 6.00 Build 0)  -->
<svg version="1.1" id="图层_1" xmlns="http://www.w3.org/2000/svg" xmlns:xlink="http://www.w3.org/1999/xlink" x="0px" y="0px"
	 viewBox="0 0 610 145" style="enable-background:new 0 0 610 145;" xml:space="preserve">
<style type="text/css">
	.st0{fill:#FFFFFF;}
</style>
<title>hilevepswhite</title>
<g>
	<path class="st0" d="M80,0c-5,0-8,7-8,7v44H16V7c0,0-2-7-8-7S0,7,0,7v104c0,0,3,6,8,6s8-6,8-6V67h56v44c0,0,2,6,8,6
		c3.4,0.1,6.6-1.9,8-5V7C88,7,85,0,80,0z"/>
	<path class="st0" d="M194,29c-19,0-35,13-41,30s0,37,13,48s37,14,52,3s14-16,14-18s-2-5-5-6s-7,1-8,2s-8,13-24,13s-23-6-29-23h67
		c2.2-1,4-2.8,5-5c2-4-3-21-11-29S213,29,194,29z M168,63c0,0,6-19,27-19s26,19,26,19H168z"/>
	<path class="st0" d="M389,29c-19,0-35,13-41,30s0,37,13,48s37,14,52,3s14-16,14-18s-2-5-5-6s-7,1-8,2s-8,13-24,13s-23-6-29-23h67
		c2.2-1,4-2.8,5-5c2-4-3-21-11-29S408,29,389,29z M363,63c0,0,6-19,27-19s26,19,26,19H363z"/>
	<path class="st0" d="M330,29c-6-2-9,4-9,4l-21,62c0,0-1,6-8,6s-8-6-8-6l-20-62c-1.9-3.6-6.1-5.3-10-4c-7,2-6,8-6,8l24,69
		c0,0,6,11,21,11s19-11,19-11l24-69C335.9,33.3,333.5,30.1,330,29z"/>
	<path class="st0" d="M488,29c-20,0-29,11-29,11v-6c0,0-1-5-7-5c-3.4-0.1-6.6,1.9-8,5v105c0,0,2,6,8,6s7-6,7-6v-32
		c8.7,6.5,19.2,10,30,10c18,0,43-15,43-44S508,29,488,29z M488,101c-27,0-29-28-29-28s1-29,29-29s28,30,28,30S515,101,488,101z"/>
	<path class="st0" d="M601,73c-9-6-11-5-24-8s-15-5-15-11s4-8,13-8s21,5,25,5s5-3,6-7s-3-9-11-12s-20-3-20-3c-13,0-37,8-33,29
		s18,19,32,23s15,6,15,11s1,8-15,8s-22-11-28-2s7,14,7,14s19,8,38,3s19-23,19-23S610,79,601,73z"/>
	<circle class="st0" cx="106.5" cy="36.5" r="7.5"/>
	<path class="st0" d="M106,49c-6,0-7,5-7,5v58c1.4,3.1,4.6,5.1,8,5c6,0,7-5,7-5V54C112.6,50.9,109.4,48.9,106,49z"/>
	<path class="st0" d="M132,29c-8,0-8,8-8,8v74c0,0,2,6,8,6c3.4,0.1,6.6-1.9,8-5V37C140,37,140,29,132,29z"/>
</g>
</svg>
