<svg xmlns="http://www.w3.org/2000/svg" viewBox="0 0 620 621"><defs><style>.cls-1{fill:#fff;}</style></defs><title>logowhite</title><g id="图层_2" data-name="图层 2"><g id="图层_2-2" data-name="图层 2"><path class="cls-1" d="M599,579h0L484.82,238.1l-.43.17A21,21,0,1,0,449.23,220V220L262.69,258.7v0A21,21,0,0,0,245,249L150.8,34.83h0a21,21,0,1,0-27.18,3.78h0L17.9,542.23H18A21,21,0,1,0,41.76,566l0,0,303-65v0a20.95,20.95,0,0,0,32.54,2.29l0,0L578,597.5l.22-.4A21.28,21.28,0,0,0,578,600a21,21,0,1,0,21-21ZM245,291a20.86,20.86,0,0,0,10.83-3l0,0,82.88,87.13a30,30,0,0,0-5.2,28.2L37.54,550.07l0,.07A21.84,21.84,0,0,0,36,548.36L236.42,289.17l0,0A21,21,0,0,0,245,291ZM137.42,47.32l94,206.7h0a21,21,0,0,0-2.77,29.13h0l-196,256.3ZM341.23,486l-.23-1L65.33,545.66l272-134.56h0a30,30,0,0,0,20.3,12.59v44.77h0A21,21,0,0,0,341.23,486Zm3.57-116.56h0L262.69,281.3l-.09.1a21,21,0,0,0,3.09-7.92v.06l186.91-38.76h0a21,21,0,0,0,2.82,3.34h0L374,366.5h0a30,30,0,0,0-29.2,2.93ZM383,489a21,21,0,0,0-16.66-20.55h0V424l-2.23-.08a29.86,29.86,0,0,0,17-6.79l189.73,160Zm4.86-79.79h0a30,30,0,0,0-6.71-38.3l81.91-128.09h0a20.85,20.85,0,0,0,7,1.19h.29l-.29.11L583.79,576.25Z"/></g></g></svg>