<svg xmlns="http://www.w3.org/2000/svg" xmlns:xlink="http://www.w3.org/1999/xlink" viewBox="0 0 610 145"><defs><style>.cls-1{fill:#fff;}.cls-2{fill:url(#天空);}</style><linearGradient id="天空" x1="51.73" y1="200.61" x2="536.61" y2="-79.34" gradientUnits="userSpaceOnUse"><stop offset="0" stop-color="#cce0f4"/><stop offset="0.06" stop-color="#c3dcf2"/><stop offset="0.17" stop-color="#a9d2ee"/><stop offset="0.31" stop-color="#80c2e7"/><stop offset="0.46" stop-color="#47acde"/><stop offset="0.57" stop-color="#1e9cd7"/><stop offset="0.87" stop-color="#0075be"/><stop offset="0.99" stop-color="#005b97"/></linearGradient></defs><title>hilevepsblue</title><g id="图层_2" data-name="图层 2"><g id="图层_2-2" data-name="图层 2"><path class="cls-1" d="M80,0c-5,0-8,7-8,7V51H16V7S14,0,8,0,0,7,0,7V111s3,6,8,6,8-6,8-6V67H72v44s2,6,8,6a8.62,8.62,0,0,0,8-5V7S85,0,80,0Z"/><path class="cls-1" d="M194,29c-19,0-35,13-41,30s0,37,13,48,37,14,52,3,14-16,14-18-2-5-5-6-7,1-8,2-8,13-24,13-23-6-29-23h67a9.83,9.83,0,0,0,5-5c2-4-3-21-11-29S213,29,194,29ZM168,63s6-19,27-19,26,19,26,19Z"/><path class="cls-1" d="M389,29c-19,0-35,13-41,30s0,37,13,48,37,14,52,3,14-16,14-18-2-5-5-6-7,1-8,2-8,13-24,13-23-6-29-23h67a9.83,9.83,0,0,0,5-5c2-4-3-21-11-29S408,29,389,29ZM363,63s6-19,27-19,26,19,26,19Z"/><path class="cls-1" d="M330,29c-6-2-9,4-9,4L300,95s-1,6-8,6-8-6-8-6L264,33a8.4,8.4,0,0,0-10-4c-7,2-6,8-6,8l24,69s6,11,21,11,19-11,19-11l24-69A8.75,8.75,0,0,0,330,29Z"/><path class="cls-1" d="M488,29c-20,0-29,11-29,11V34s-1-5-7-5a8.62,8.62,0,0,0-8,5V139s2,6,8,6,7-6,7-6V107a50.46,50.46,0,0,0,30,10c18,0,43-15,43-44S508,29,488,29Zm0,72c-27,0-29-28-29-28s1-29,29-29,28,30,28,30S515,101,488,101Z"/><path class="cls-1" d="M601,73c-9-6-11-5-24-8s-15-5-15-11,4-8,13-8,21,5,25,5,5-3,6-7-3-9-11-12-20-3-20-3c-13,0-37,8-33,29s18,19,32,23,15,6,15,11,1,8-15,8-22-11-28-2,7,14,7,14,19,8,38,3,19-23,19-23S610,79,601,73Z"/><circle class="cls-1" cx="106.5" cy="36.5" r="7.5"/><path class="cls-1" d="M106,49c-6,0-7,5-7,5v58a8.62,8.62,0,0,0,8,5c6,0,7-5,7-5V54A8.62,8.62,0,0,0,106,49Z"/><path class="cls-1" d="M132,29c-8,0-8,8-8,8v74s2,6,8,6a8.62,8.62,0,0,0,8-5V37S140,29,132,29Z"/><path class="cls-2" d="M80,0c-5,0-8,7-8,7V51H16V7S14,0,8,0,0,7,0,7V111s3,6,8,6,8-6,8-6V67H72v44s2,6,8,6a8.62,8.62,0,0,0,8-5V7S85,0,80,0Z"/><path class="cls-2" d="M194,29c-19,0-35,13-41,30s0,37,13,48,37,14,52,3,14-16,14-18-2-5-5-6-7,1-8,2-8,13-24,13-23-6-29-23h67a9.83,9.83,0,0,0,5-5c2-4-3-21-11-29S213,29,194,29ZM168,63s6-19,27-19,26,19,26,19Z"/><path class="cls-2" d="M389,29c-19,0-35,13-41,30s0,37,13,48,37,14,52,3,14-16,14-18-2-5-5-6-7,1-8,2-8,13-24,13-23-6-29-23h67a9.83,9.83,0,0,0,5-5c2-4-3-21-11-29S408,29,389,29ZM363,63s6-19,27-19,26,19,26,19Z"/><path class="cls-2" d="M330,29c-6-2-9,4-9,4L300,95s-1,6-8,6-8-6-8-6L264,33a8.4,8.4,0,0,0-10-4c-7,2-6,8-6,8l24,69s6,11,21,11,19-11,19-11l24-69A8.75,8.75,0,0,0,330,29Z"/><path class="cls-2" d="M488,29c-20,0-29,11-29,11V34s-1-5-7-5a8.62,8.62,0,0,0-8,5V139s2,6,8,6,7-6,7-6V107a50.46,50.46,0,0,0,30,10c18,0,43-15,43-44S508,29,488,29Zm0,72c-27,0-29-28-29-28s1-29,29-29,28,30,28,30S515,101,488,101Z"/><path class="cls-2" d="M601,73c-9-6-11-5-24-8s-15-5-15-11,4-8,13-8,21,5,25,5,5-3,6-7-3-9-11-12-20-3-20-3c-13,0-37,8-33,29s18,19,32,23,15,6,15,11,1,8-15,8-22-11-28-2,7,14,7,14,19,8,38,3,19-23,19-23S610,79,601,73Z"/><circle class="cls-2" cx="106.5" cy="36.5" r="7.5"/><path class="cls-2" d="M106,49c-6,0-7,5-7,5v58a8.62,8.62,0,0,0,8,5c6,0,7-5,7-5V54A8.62,8.62,0,0,0,106,49Z"/><path class="cls-2" d="M132,29c-8,0-8,8-8,8v74s2,6,8,6a8.62,8.62,0,0,0,8-5V37S140,29,132,29Z"/></g></g></svg>